# xmcd
#
# Track frame offsets:
#	150
#	13121
#	27458
#	42091
#	55320
#	69399
#	82879
#	97129
#	111142
#	122745
#
# Disc length: 1805 seconds
#
# Revision: 0
# Processed by: cddbd v1.5.2PL0 Copyright (c) Steve Scherf et al.
# Submitted via: EasyCDDAExtractor 16.0.6.1
#
DISCID=80070b0a
DTITLE=Συλλογικός δίσκος - Λαϊκό τραγούδι 1954-1967, 1964-3
DYEAR=2008
DGENRE=Λαϊκή
TTITLE0=Μενιδιάτης Μιχάλης-Γκίκα Βούλα - Ξημέρωσε καλή μου [Άκης Πάνου-Νίκος Κ
TTITLE0=αρανικόλας]
TTITLE1=Μιχαλόπουλος Πάνος - Με το δικό μου όνομα [Θεόδωρος Πολυκανδριώτης]
TTITLE2=Καζαντζίδης Στέλιος-Μαρινέλλα - Και σιδερένια να είχα καρδιά [Μπάμπης 
TTITLE2=Μπακάλης-Κώστας Βίρβος]
TTITLE3=Μοσχολιού Βίκυ - Μαύρη η ώρα που σ' αντάμωσα [Απόστολος Καλδάρας]
TTITLE4=Τσαουσάκης Πρόδρομος-Καλάκη Ρούλα - Τα πάντα είναι μάταια [Μπάμπης Μπα
TTITLE4=κάλης-Ηρακλής Παπασιδέρης]
TTITLE5=Καζαντζίδης Στέλιος-Μαρινέλλα - Θα με θυμηθείς [Δημήτρης Γκούτης]
TTITLE6=Διονυσίου Στράτος - Όρκο κάνω στον Θεό [Γιάννης Καραμπεσίνης]
TTITLE7=Καζαντζίδης Στέλιος-Μαρινέλλα - Ο φελάχος [Στέλιος Καζαντζίδης-Στέφανο
TTITLE7=ς Βαρτάνης]
TTITLE8=Μενιδιάτης Μιχάλης-Γκίκα Βούλα - Χριστέ και Παναγιά [Γεράσιμος Κλουβάτ
TTITLE8=ος-Νίκος Δαλέζιος]
TTITLE9=Περπινιάδης Βαγγέλης - Δεν θέλω, να με κλάψετε [Βαγγέλης Περπινιάδης-Δ
TTITLE9=ημήτρης Γκούτης]
EXTD=
EXTT0=
EXTT1=
EXTT2=
EXTT3=
EXTT4=
EXTT5=
EXTT6=
EXTT7=
EXTT8=
EXTT9=
PLAYORDER=
